<svg xmlns="http://www.w3.org/2000/svg" xmlns:xlink="http://www.w3.org/1999/xlink" version="1.1" x="0px" y="0px" viewBox="0 0 44 66.25" enable-background="new 0 0 44 53" xml:space="preserve"><g><path d="M19,25c0-3.86-3.14-7-7-7s-7,3.14-7,7s3.14,7,7,7S19,28.86,19,25z M12,30c-2.76,0-5-2.24-5-5s2.24-5,5-5s5,2.24,5,5   S14.76,30,12,30z"/><path d="M32,18c-3.86,0-7,3.14-7,7s3.14,7,7,7s7-3.14,7-7S35.86,18,32,18z M32,30c-2.76,0-5-2.24-5-5s2.24-5,5-5s5,2.24,5,5   S34.76,30,32,30z"/><path d="M39,6h-9V2.31C30,1.03,28.97,0,27.69,0H16.31C15.03,0,14,1.03,14,2.31V6H5c-2.76,0-5,2.24-5,5v33c0,2.76,2.24,5,5,5h3v1.69   C8,51.97,9.03,53,10.31,53h23.39c1.27,0,2.31-1.03,2.31-2.31V49h3c2.76,0,5-2.24,5-5V11C44,8.24,41.76,6,39,6z M16,2.31   C16,2.14,16.14,2,16.31,2h11.39C27.86,2,28,2.14,28,2.31V6h-2h-8h-2V2.31z M26,12h3.59L22,19.59L14.41,12H18c0.55,0,1-0.45,1-1V8h6   v3C25,11.55,25.45,12,26,12z M34,50.69c0,0.17-0.14,0.31-0.31,0.31H10.31C10.14,51,10,50.86,10,50.69V49h24V50.69z M42,44   c0,1.65-1.35,3-3,3h-3H8H5c-1.65,0-3-1.35-3-3V11c0-1.65,1.35-3,3-3h9h3v2h-5c-0.4,0-0.77,0.24-0.92,0.62s-0.07,0.8,0.22,1.09   l10,10C21.49,21.9,21.74,22,22,22s0.51-0.1,0.71-0.29l10-10c0.29-0.29,0.37-0.72,0.22-1.09S32.4,10,32,10h-5V8h3h9   c1.65,0,3,1.35,3,3V44z"/><path d="M29,39H15c-0.55,0-1,0.45-1,1s0.45,1,1,1h14c0.55,0,1-0.45,1-1S29.55,39,29,39z"/></g><text x="0" y="68" fill="#000000" font-size="5px" font-weight="bold" font-family="'Helvetica Neue', Helvetica, Arial-Unicode, Arial, Sans-serif">Created by Ben Davis</text><text x="0" y="73" fill="#000000" font-size="5px" font-weight="bold" font-family="'Helvetica Neue', Helvetica, Arial-Unicode, Arial, Sans-serif">from the Noun Project</text></svg>