<svg xmlns="http://www.w3.org/2000/svg" xmlns:xlink="http://www.w3.org/1999/xlink" version="1.1" x="0px" y="0px" viewBox="0 0 100 125" style="enable-background:new 0 0 100 100;" xml:space="preserve"><path d="M75,29H25c-3.9,0-7,3.1-7,7v28c0,3.9,3.1,7,7,7h50c3.9,0,7-3.1,7-7V36C82,32.1,78.9,29,75,29z M80,64c0,2.8-2.2,5-5,5H25  c-2.8,0-5-2.2-5-5V36c0-2.8,2.2-5,5-5h50c2.8,0,5,2.2,5,5V64z M40,49.3c0.9-1.3,1.2-3,0.9-4.7c-0.5-2.2-2.2-3.9-4.4-4.4  C35.9,40.1,35.5,40,35,40c-1.6,0-3.1,0.6-4.2,1.8C29.6,42.9,29,44.4,29,46c0,1.2,0.4,2.4,1,3.3c-2.3,0.8-4,3-4,5.7v2  c0,1.7,1.3,3,3,3h12c1.7,0,3-1.3,3-3v-2C44,52.4,42.3,50.2,40,49.3z M42,57c0,0.6-0.4,1-1,1H29c-0.6,0-1-0.4-1-1v-2c0-2.2,1.8-4,4-4  h2v-1.1c-1.7-0.4-3-2-3-3.9c0-2.2,1.8-4,4-4c0.3,0,0.6,0,1,0.1c1.4,0.3,2.6,1.5,2.9,2.9c0.5,2.3-0.9,4.3-2.9,4.8V51h2  c2.2,0,4,1.8,4,4V57z M75,39H51c-0.6,0-1,0.4-1,1v4c0,0.6,0.4,1,1,1h24c0.6,0,1-0.4,1-1v-4C76,39.4,75.6,39,75,39z M74,43H52v-2h22  V43z M75,47H51c-0.6,0-1,0.4-1,1v4c0,0.6,0.4,1,1,1h24c0.6,0,1-0.4,1-1v-4C76,47.4,75.6,47,75,47z M74,51H52v-2h22V51z M69,55H51  c-0.6,0-1,0.4-1,1v4c0,0.6,0.4,1,1,1h18c0.6,0,1-0.4,1-1v-4C70,55.4,69.6,55,69,55z M68,59H52v-2h16V59z"/><text x="0" y="115" fill="#000000" font-size="5px" font-weight="bold" font-family="'Helvetica Neue', Helvetica, Arial-Unicode, Arial, Sans-serif">Created by Setyo Ari Wibowo</text><text x="0" y="120" fill="#000000" font-size="5px" font-weight="bold" font-family="'Helvetica Neue', Helvetica, Arial-Unicode, Arial, Sans-serif">from the Noun Project</text></svg>
