<svg xmlns:dc="http://purl.org/dc/elements/1.1/" xmlns:cc="http://creativecommons.org/ns#" xmlns:rdf="http://www.w3.org/1999/02/22-rdf-syntax-ns#" xmlns:svg="http://www.w3.org/2000/svg" xmlns="http://www.w3.org/2000/svg" xmlns:sodipodi="http://sodipodi.sourceforge.net/DTD/sodipodi-0.dtd" xmlns:inkscape="http://www.inkscape.org/namespaces/inkscape" preserveAspectRatio="xMidYMid" viewBox="0 0 63 78.75" version="1.1" x="0px" y="0px"><defs><style>

      .cls-3 {
        fill: #ffffff;
      }
    </style></defs><path style="" d="M 51.875 0 C 48.911 0 46.12825 1.152 44.03125 3.25 L 3.375 43.9375 C 3.158 44.1545 3.02275 44.448 2.96875 44.75 L 0 61.28125 C -0.086 61.76425 0.0905 62.277 0.4375 62.625 C 0.7205 62.909 1.106 63.0625 1.5 63.0625 C 1.588 63.0625 1.662 63.04725 1.75 63.03125 L 18.28125 60.0625 C 18.58325 60.0085 18.8455 59.87325 19.0625 59.65625 L 59.71875 18.96875 C 61.81575 16.87075 63 14.091 63 11.125 C 63 8.158 61.81575 5.347 59.71875 3.25 C 57.62375 1.152 54.839 2.5066754e-019 51.875 0 z M 51.875 3 C 54.038 3 56.096 3.845 57.625 5.375 C 59.156 6.906 60 8.96 60 11.125 C 60 13.29 59.156 15.31375 57.625 16.84375 L 56.375 18.09375 C 56.308343 17.972801 56.22755 17.85255 56.125 17.75 L 45.25 6.875 C 45.143523 6.7685232 45.032341 6.6927829 44.90625 6.625 L 46.15625 5.375 C 47.68625 3.845 49.712 3 51.875 3 z M 42.875 8.65625 C 42.942783 8.7823271 43.018523 8.8937049 43.125 9 L 54 19.875 C 54.106477 19.981477 54.217605 20.057301 54.34375 20.125 L 17.4375 57.03125 C 17.371987 56.915125 17.286388 56.786387 17.1875 56.6875 L 6.34375 45.8125 C 6.2448625 45.713444 6.1160727 45.659332 6 45.59375 L 42.875 8.65625 z M 5.25 48.96875 L 14.0625 57.78125 L 3.34375 59.6875 L 5.25 48.96875 z " fill="#ffffff" fill-rule="evenodd"/><text x="0" y="78" fill="#ffffff" font-size="5px" font-weight="bold" font-family="'Helvetica Neue', Helvetica, Arial-Unicode, Arial, Sans-serif">Created by Shital Patel</text><text x="0" y="83" fill="#ffffff" font-size="5px" font-weight="bold" font-family="'Helvetica Neue', Helvetica, Arial-Unicode, Arial, Sans-serif">from the Noun Project</text></svg>
