<svg xmlns="http://www.w3.org/2000/svg" xmlns:xlink="http://www.w3.org/1999/xlink" version="1.1" x="0px" y="0px" viewBox="0 0 95 118.75" style="enable-background:new 0 0 95 95;" xml:space="preserve"><path fill="#ffffff" d="M47.5,0l2.1,3.6l11.6,20l23.3,0.1l4.1,0l-2,3.6L75,47.5l11.6,20.3l2,3.6l-4.1,0l-23.3,0.1l-11.6,20L47.5,95l-2.1-3.6  l-11.6-20l-23.3-0.1l-4.1,0l2-3.6L20,47.5L8.4,27.2l-2-3.6l4.1,0l23.3-0.1l11.6-20L47.5,0 M47.5,9.6l-8.1,14l-2.8,4.8l-5.6,0  l-16.4,0.1l8.2,14.3c0,0,1.4,2.4,2.8,4.8c-1.4,2.8-1.7,3.5-2.6,5.1l-8.3,14L31,66.6l5.6,0l2.8,4.8l8.1,14l8.1-14l2.8-4.8l5.6,0  l16.4-0.1l-8.2-14.3l-2.8-4.8l2.8-4.8l8.2-14.3L64,28.4l-5.6,0l-2.8-4.8L47.5,9.6z M47.5,17.9c5.9,0.4,8.3,8.3,9.5,13.1  c3-0.9,6.1-1.3,9.3-1.5c2.6,0.1,5.3,0.8,6.8,3.2c2.6,5.3-3,11.4-6.5,14.8c3.5,3.4,9.2,9.4,6.5,14.8c-2.1,3.5-7,3.4-10.5,3  C60.6,65,58.8,64.6,57,64c-1.2,4.7-3.5,12.7-9.5,13c-5.9-0.4-8.3-8.2-9.5-13c-3,1-6.1,1.4-9.3,1.4c-2.6-0.1-5.3-0.8-6.8-3.2  c-2.6-5.3,3-11.4,6.5-14.8c-3.5-3.4-9.2-9.4-6.5-14.8c1.6-2.5,4-2.9,6.8-3.2c3.1,0,6.3,0.6,9.3,1.5C39.2,26.3,41.5,18.3,47.5,17.9   M47.5,60.3c-1.8,0.9-3.7,1.6-5.6,2.4c0.2,1.2,0.6,2.4,1,3.6c1.5,4.4,3.3,6.6,4.6,6.6s3.1-2.3,4.6-6.6c0.4-1.2,0.7-2.4,1-3.6  C51.1,62,49.3,61.1,47.5,60.3 M31.6,50.3c-0.9,0.8-1.8,1.7-2.6,2.7c-3,3.5-4.1,6.2-3.5,7.3c0.6,1.1,3.5,1.6,8,0.6  c1.2-0.3,2.4-0.5,3.6-0.9c-0.3-2-0.6-4-0.7-6.1C34.8,52.8,33.2,51.5,31.6,50.3 M63.4,50.3c-1.5,1.3-3.2,2.5-4.9,3.6  c-0.1,2-0.4,4-0.7,6c1.2,0.4,2.4,0.7,3.6,0.9c4.5,0.9,7.4,0.5,8-0.6c0.6-1.1-0.4-3.8-3.5-7.3C65.2,52,64.3,51.1,63.4,50.3   M54.1,56.7c-0.6,0.4-1.3,0.8-1.9,1.1c1.3,0.6,0.7,0.3,1.7,0.7L54.1,56.7 M40.9,56.7l0.2,1.8l1.7-0.7L40.9,56.7 M47.5,39.3  c-2.4,1.2-4.8,2.6-7,4.1c-0.1,2.7-0.1,5.4,0,8.2c2.3,1.5,4.6,2.9,7,4.1c2.4-1.2,4.8-2.6,7-4.1c0.1-2.7,0.1-5.4,0-8.2  C52.3,42,49.9,40.6,47.5,39.3 M36.2,46.4c-0.7,0.5-0.2,0.2-1.4,1.1c1.2,1,0.7,0.6,1.4,1.1L36.2,46.4 M58.8,46.4l0,2.2  c0.7-0.5,0.2-0.2,1.4-1.1C59,46.5,59.5,46.9,58.8,46.4 M65.7,33.7c-2.7,0-5.3,0.6-7.9,1.4c0.3,2,0.6,4,0.7,6.1  c1.7,1.1,3.3,2.4,4.9,3.6c0.9-0.8,1.8-1.7,2.6-2.7c3-3.5,4.1-6.2,3.5-7.3C68.5,33.7,67,33.7,65.7,33.7 M29.8,33.7  c-1.3,0-3.4-0.1-4.3,1.1c-0.6,1.1,0.4,3.8,3.5,7.3c0.8,0.9,1.7,1.8,2.6,2.7c1.5-1.3,3.2-2.5,4.9-3.6c0.1-2,0.4-4,0.7-6  C34.8,34.3,32.3,33.8,29.8,33.7 M41.1,36.5l-0.3,1.8c0.6-0.4,1.3-0.8,2-1.1C41.5,36.6,42.1,36.8,41.1,36.5 M53.9,36.5l-1.7,0.7  l1,0.6l1,0.6L53.9,36.5 M47.5,22.1c-1.3,0-3.1,2.3-4.6,6.6c-0.4,1.2-0.7,2.4-1,3.6c1.9,0.7,3.7,1.6,5.6,2.4c1.8-0.9,3.7-1.7,5.5-2.5  c-0.2-1.2-0.6-2.4-1-3.6C50.6,24.4,48.8,22.1,47.5,22.1z M47.5,52.8c-2.9,0-5.3-2.4-5.3-5.3s2.4-5.3,5.3-5.3s5.3,2.4,5.3,5.3  S50.4,52.8,47.5,52.8z"/><text x="0" y="110" fill="#ffffff" font-size="5px" font-weight="bold" font-family="'Helvetica Neue', Helvetica, Arial-Unicode, Arial, Sans-serif">Created by Mark S Waterhouse</text><text x="0" y="115" fill="#ffffff" font-size="5px" font-weight="bold" font-family="'Helvetica Neue', Helvetica, Arial-Unicode, Arial, Sans-serif">from the Noun Project</text></svg>
