<svg xmlns="http://www.w3.org/2000/svg" xmlns:xlink="http://www.w3.org/1999/xlink" version="1.1" x="0px" y="0px" viewBox="0 0 128 160" enable-background="new 0 0 128 128" xml:space="preserve"><g><g><g><path fill="#ffffff" d="M81.1,127.5H46.9c-0.5,0-1.1-0.2-1.5-0.6s-0.6-0.9-0.5-1.5c0.4-8,5.5-14.7,12.8-17.3v-33     c-9.6-2.5-17-10.7-18.5-20.8L29.4,2.9c-0.1-0.6,0-1.2,0.4-1.7s0.9-0.7,1.5-0.7h65.2c0.6,0,1.2,0.3,1.5,0.7     c0.4,0.5,0.5,1.1,0.4,1.7l-9.9,51.5C87,64.5,79.7,72.6,70.1,75.2v33c7.3,2.5,12.4,9.3,12.8,17.3c0,0.5-0.2,1.1-0.5,1.5     C82.2,127.3,81.6,127.5,81.1,127.5z M49.2,123.5h29.6c-1.1-5.8-5.4-10.5-11.1-12c-0.9-0.2-1.5-1-1.5-1.9V73.5c0-1,0.7-1.8,1.6-2     c8.8-1.7,15.5-8.9,16.9-17.9l9.5-49.2H33.8l9.5,49.1c1.3,9.1,8.1,16.3,16.9,18c0.9,0.2,1.6,1,1.6,2v36.1c0,0.9-0.6,1.7-1.5,1.9     C54.5,113,50.3,117.7,49.2,123.5z"/></g><g><path fill="#ffffff" d="M94.6,14H33.4c-0.6,0-1-0.4-1-1s0.4-1,1-1h61.2c0.6,0,1,0.4,1,1C95.6,13.5,95.2,14,94.6,14z"/></g></g><g><path fill="#ffffff" d="M59.1,51.7c-4.6,0-8.4-3.8-8.4-8.4s3.8-8.4,8.4-8.4s8.4,3.8,8.4,8.4S63.7,51.7,59.1,51.7z M59.1,36.9    c-3.5,0-6.4,2.9-6.4,6.4s2.9,6.4,6.4,6.4s6.4-2.9,6.4-6.4C65.5,39.7,62.6,36.9,59.1,36.9z"/></g><g><path fill="#ffffff" d="M76.2,28.9c-2.5,0-4.5-2-4.5-4.5s2-4.5,4.5-4.5s4.5,2,4.5,4.5C80.7,26.8,78.7,28.9,76.2,28.9z M76.2,21.9    c-1.4,0-2.5,1.1-2.5,2.5s1.1,2.5,2.5,2.5s2.5-1.1,2.5-2.5S77.5,21.9,76.2,21.9z"/></g></g><text x="0" y="143" fill="#ffffff" font-size="5px" font-weight="bold" font-family="'Helvetica Neue', Helvetica, Arial-Unicode, Arial, Sans-serif">Created by Vectors Market</text><text x="0" y="148" fill="#ffffff" font-size="5px" font-weight="bold" font-family="'Helvetica Neue', Helvetica, Arial-Unicode, Arial, Sans-serif">from the Noun Project</text></svg>
