<svg version="1" xmlns="http://www.w3.org/2000/svg" width="682.667" height="682.667" viewBox="0 0 512.000000 512.000000"><path d="M0 256v256h512V0H0v256zm462 0v53H50V203h412v53z"/><path d="M60 256v43h392v-86H60v43zm58.6-22.6l2.3 6.8-2.2-.6c-1.2-.4-5-1-8.5-1.3l-6.3-.6.4 21.9c.2 12 .7 22.9 1.1 24.1.8 2.3.7 2.3-7.9 2.3h-8.7l.7-2.8c.5-1.5 1-12.3 1.2-24l.4-21.2h-4.9c-2.7 0-6.3.5-8.1 1.1-1.8.6-3.5.9-3.8.6-.3-.3.5-3.5 1.7-7.2l2.2-6.5 19 .2 19.1.3 2.3 6.9zm48.1-2.2l5.3 5.2v15l-4.5 4.6-4.5 4.6 3.1 8.4c1.7 4.7 3.9 9.9 5 11.6 3.1 5.1 2.7 5.5-5.8 5.2l-7.8-.3-3.6-11-3.6-11-4.3-.3-4.3-.3.5 11.6.4 11.6-7.5-.3c-6.2-.2-7.5-.6-7.1-1.8.9-3 1.1-50 .2-53.4-.6-1.9-.7-3.7-.4-4 .3-.3 8-.6 17.1-.6h16.5l5.3 5.2zm31.4 15.8c-.1 11.6 0 22.1.3 23.4.3 1.4 1.7 2.8 3.3 3.3 2.8.9 9.7.2 11.1-1.1.4-.4.7-11.1.7-23.7v-23l7.5.3c6.1.2 7.4.6 7 1.8-.3.8-.6 11.8-.7 24.4l-.1 22.9-5.3 5.3-5.3 5.4H194.9l-5.5-5.2-5.5-5.1.1-22.2c.1-12.2-.2-23.3-.5-24.8l-.7-2.7h15.7l-.4 21zm76.7-14.1l2.2 6.3-2.2-.7c-4.3-1.4-16.5-1.7-18.7-.6-2.9 1.6-3.8 5.7-1.6 8.1.9 1 4.3 2.4 7.4 3.1 4.4 1 6.6 2.1 10.4 5.8l4.7 4.5v15.2l-5.8 5.7-5.8 5.7h-23l-2.2-6.7c-1.2-3.7-2-6.9-1.7-7.1.2-.2 1.8.1 3.6.7s6.5 1.1 10.5 1.1c6.4 0 7.5-.3 8.8-2.2 2.1-3 2-7.1-.2-9.1-1-.9-4.2-2.1-7.2-2.8-4.4-.9-6.5-2-10.2-5.7-4.7-4.5-4.8-4.8-4.8-10.5s.1-5.9 5.7-11.8l5.7-6 11 .3 11.1.3 2.3 6.4zm53.1-1.5l5.4 5.5-.2 7.8-.2 7.8-5.7 5.7-5.6 5.8h-18.8l.5 8.7c.3 4.9.8 9.8 1.2 11 .7 2.3.6 2.3-7.1 2.3h-7.9v-60h33.1l5.3 5.4zm44.1-1.3c0 4.3 11.3 47.5 13.6 52.1.8 1.5 1.4 2.9 1.4 3.3 0 .3-3.8.5-8.5.5h-8.4l.1-5.3c.1-2.8-.4-6.2-1.1-7.5-1.1-2-1.9-2.2-9.1-2.2h-7.8l-1.2 3.5c-.6 1.9-1 5.2-.8 7.3l.3 3.7-7.7.3c-4.3.2-7.8 0-7.8-.3s.7-2 1.6-3.7c2.8-5.4 14.1-49.2 13.6-52.7l-.4-3.1H372v4.1zm61.7 1.1l5.3 5.2v7.4c0 7.3 0 7.3-4.5 12.1l-4.5 4.9 3 8.3c1.7 4.6 4 9.9 5.1 11.7 1 1.8 1.9 3.7 1.9 4.3 0 .5-3.5.9-7.8.9h-7.8l-3.3-10.3c-1.8-5.6-3.8-10.8-4.3-11.5-.6-.6-2.6-1.2-4.5-1.2h-3.6l.5 11.5.4 11.5h-15.8l.9-3.3c.4-1.7.8-13.8.8-26.7 0-12.9-.4-25-.8-26.8l-.9-3.2h34.6l5.3 5.2z"/><path d="M142 244.5v7.5h5.8c7.8 0 10.2-1.7 10.2-7.5s-2.4-7.5-10.2-7.5H142v7.5zM303 244.4v7.5l5.3.3c6.3.4 9.1-.6 10.6-3.9 1.7-3.7 1.3-6.2-1.4-8.8-2-2.1-3.4-2.5-8.5-2.5h-6v7.4zM359.2 241.5c-2.6 9.6-4.2 16.4-4.2 17.9 0 1.3 1.1 1.6 5.5 1.6 3 0 5.5-.3 5.5-.8 0-.4-1.3-5.7-2.9-11.7l-2.8-11-1.1 4zM409 244.4v7.4l3.3.6c1.7.3 4.1.4 5.2.1 1.1-.2 2.3-.4 2.8-.4 2.1-.2 4.7-4.4 4.7-7.6 0-5.4-2.8-7.5-10-7.5h-6v7.4z"/></svg>